HIERARCHY
ROOT pelvis
{
	OFFSET 0.003123 -0.351407 0.012037
	CHANNELS 6 Xposition Yposition Zposition Zrotation Yrotation Xrotation 
	JOINT left_hip
	{
		OFFSET 0.058189 -0.092763 -0.026001
		CHANNELS 3 Zrotation Yrotation Xrotation
		JOINT left_knee
		{
			OFFSET 0.054695 -0.378753 -0.009396
			CHANNELS 3 Zrotation Yrotation Xrotation
			JOINT left_ankle
			{
				OFFSET -0.043453 -0.403059 -0.031876
				CHANNELS 3 Zrotation Yrotation Xrotation
				JOINT left_foot
				{
					OFFSET 0.047257 -0.057997 0.118216
					CHANNELS 3 Zrotation Yrotation Xrotation
					End Site
					{
						OFFSET 0.000000 0.000000 0.000000
					}
				}
			}
		}
	}
	JOINT right_hip
	{
		OFFSET -0.063267 -0.103908 -0.021250
		CHANNELS 3 Zrotation Yrotation Xrotation
		JOINT right_knee
		{
			OFFSET -0.044210 -0.362380 -0.016824
			CHANNELS 3 Zrotation Yrotation Xrotation
			JOINT right_ankle
			{
				OFFSET 0.015417 -0.410728 -0.020192
				CHANNELS 3 Zrotation Yrotation Xrotation
				JOINT right_foot
				{
					OFFSET -0.038812 -0.058328 0.119049
					CHANNELS 3 Zrotation Yrotation Xrotation
					End Site
					{
						OFFSET 0.000000 0.000000 0.000000
					}
				}
			}
		}
	}
	JOINT spine_1
	{
		OFFSET -0.002763 0.109891 -0.027618
		CHANNELS 3 Zrotation Yrotation Xrotation
		JOINT spine_2
		{
			OFFSET 0.009448 0.131853 -0.005940
			CHANNELS 3 Zrotation Yrotation Xrotation
			JOINT spine_3
			{
				OFFSET -0.011330 0.052235 0.028447
				CHANNELS 3 Zrotation Yrotation Xrotation
				JOINT neck
				{
					OFFSET -0.012164 0.165167 -0.031615
					CHANNELS 3 Zrotation Yrotation Xrotation
					JOINT head
					{
						OFFSET 0.024783 0.160452 0.020737
						CHANNELS 3 Zrotation Yrotation Xrotation
						End Site
						{
							OFFSET 0.000000 0.000000 0.000000
						}
					}
				}
				JOINT left_collar
				{
					OFFSET 0.046364 0.084944 -0.007220
					CHANNELS 3 Zrotation Yrotation Xrotation
					JOINT left_shoulder
					{
						OFFSET 0.119239 0.057728 -0.015461
						CHANNELS 3 Zrotation Yrotation Xrotation
						JOINT left_elbow
						{
							OFFSET 0.254123 -0.072151 -0.042459
							CHANNELS 3 Zrotation Yrotation Xrotation
							JOINT left_wrist
							{
								OFFSET 0.251987 0.023221 -0.002472
								CHANNELS 3 Zrotation Yrotation Xrotation
								JOINT left_index_1
								{
									OFFSET 0.101902 -0.008688 0.019351
									CHANNELS 3 Zrotation Yrotation Xrotation
									JOINT left_index_2
									{
										OFFSET 0.030149 -0.011154 0.001151
										CHANNELS 3 Zrotation Yrotation Xrotation
										JOINT left_index_3
										{
											OFFSET 0.006504 -0.021577 -0.002433
											CHANNELS 3 Zrotation Yrotation Xrotation
											End Site
											{
												OFFSET 0.000000 0.000000 0.000000
											}
										}
									}
								}
								JOINT left_middle_1
								{
									OFFSET 0.109398 -0.006328 -0.003981
									CHANNELS 3 Zrotation Yrotation Xrotation
									JOINT left_middle_2
									{
										OFFSET 0.026472 -0.015218 -0.004641
										CHANNELS 3 Zrotation Yrotation Xrotation
										JOINT left_middle_3
										{
											OFFSET 0.005022 -0.023347 -0.001911
											CHANNELS 3 Zrotation Yrotation Xrotation
											End Site
											{
												OFFSET 0.000000 0.000000 0.000000
											}
										}
									}
								}
								JOINT left_pinky_1
								{
									OFFSET 0.084047 -0.014539 -0.043750
									CHANNELS 3 Zrotation Yrotation Xrotation
									JOINT left_pinky_2
									{
										OFFSET 0.012124 -0.014448 -0.005375
										CHANNELS 3 Zrotation Yrotation Xrotation
										JOINT left_pinky_3
										{
											OFFSET 0.003798 -0.018853 0.000167
											CHANNELS 3 Zrotation Yrotation Xrotation
											End Site
											{
												OFFSET 0.000000 0.000000 0.000000
											}
										}
									}
								}
								JOINT left_ring_1
								{
									OFFSET 0.097444 -0.009268 -0.027345
									CHANNELS 3 Zrotation Yrotation Xrotation
									JOINT left_ring_2
									{
										OFFSET 0.023561 -0.016057 -0.001895
										CHANNELS 3 Zrotation Yrotation Xrotation
										JOINT left_ring_3
										{
											OFFSET 0.004257 -0.023548 0.000814
											CHANNELS 3 Zrotation Yrotation Xrotation
											End Site
											{
												OFFSET 0.000000 0.000000 0.000000
											}
										}
									}
								}
								JOINT left_thumb_1
								{
									OFFSET 0.040636 -0.017977 0.025611
									CHANNELS 3 Zrotation Yrotation Xrotation
									JOINT left_thumb_2
									{
										OFFSET 0.021637 -0.017639 0.011623
										CHANNELS 3 Zrotation Yrotation Xrotation
										JOINT left_thumb_3
										{
											OFFSET 0.024002 -0.008356 0.006548
											CHANNELS 3 Zrotation Yrotation Xrotation
											End Site
											{
												OFFSET 0.000000 0.000000 0.000000
											}
										}
									}
								}
							}
						}
					}
				}
				JOINT right_collar
				{
					OFFSET -0.047695 0.084339 -0.013400
					CHANNELS 3 Zrotation Yrotation Xrotation
					JOINT right_shoulder
					{
						OFFSET -0.102578 0.053524 -0.012669
						CHANNELS 3 Zrotation Yrotation Xrotation
						JOINT right_elbow
						{
							OFFSET -0.271150 -0.036492 -0.026467
							CHANNELS 3 Zrotation Yrotation Xrotation
							JOINT right_wrist
							{
								OFFSET -0.249267 -0.004533 -0.015325
								CHANNELS 3 Zrotation Yrotation Xrotation
								JOINT right_index_1
								{
									OFFSET -0.099881 -0.011783 0.019600
									CHANNELS 3 Zrotation Yrotation Xrotation
									JOINT right_index_2
									{
										OFFSET -0.030148 -0.011154 0.001151
										CHANNELS 3 Zrotation Yrotation Xrotation
										JOINT right_index_3
										{
											OFFSET -0.006505 -0.021577 -0.002432
											CHANNELS 3 Zrotation Yrotation Xrotation
											End Site
											{
												OFFSET 0.000000 0.000000 0.000000
											}
										}
									}
								}
								JOINT right_middle_1
								{
									OFFSET -0.107376 -0.009422 -0.003734
									CHANNELS 3 Zrotation Yrotation Xrotation
									JOINT right_middle_2
									{
										OFFSET -0.026472 -0.015218 -0.004641
										CHANNELS 3 Zrotation Yrotation Xrotation
										JOINT right_middle_3
										{
											OFFSET -0.005022 -0.023347 -0.001911
											CHANNELS 3 Zrotation Yrotation Xrotation
											End Site
											{
												OFFSET 0.000000 0.000000 0.000000
											}
										}
									}
								}
								JOINT right_pinky_1
								{
									OFFSET -0.082027 -0.017634 -0.043503
									CHANNELS 3 Zrotation Yrotation Xrotation
									JOINT right_pinky_2
									{
										OFFSET -0.012123 -0.014448 -0.005374
										CHANNELS 3 Zrotation Yrotation Xrotation
										JOINT right_pinky_3
										{
											OFFSET -0.003798 -0.018852 0.000167
											CHANNELS 3 Zrotation Yrotation Xrotation
											End Site
											{
												OFFSET 0.000000 0.000000 0.000000
											}
										}
									}
								}
								JOINT right_ring_1
								{
									OFFSET -0.095423 -0.012362 -0.027099
									CHANNELS 3 Zrotation Yrotation Xrotation
									JOINT right_ring_2
									{
										OFFSET -0.023561 -0.016057 -0.001895
										CHANNELS 3 Zrotation Yrotation Xrotation
										JOINT right_ring_3
										{
											OFFSET -0.004257 -0.023548 0.000816
											CHANNELS 3 Zrotation Yrotation Xrotation
											End Site
											{
												OFFSET 0.000000 0.000000 0.000000
											}
										}
									}
								}
								JOINT right_thumb_1
								{
									OFFSET -0.038613 -0.021074 0.025861
									CHANNELS 3 Zrotation Yrotation Xrotation
									JOINT right_thumb_2
									{
										OFFSET -0.021636 -0.017639 0.011623
										CHANNELS 3 Zrotation Yrotation Xrotation
										JOINT right_thumb_3
										{
											OFFSET -0.024004 -0.008353 0.006547
											CHANNELS 3 Zrotation Yrotation Xrotation
											End Site
											{
												OFFSET 0.000000 0.000000 0.000000
											}
										}
									}
								}
							}
						}
					}
				}
			}
		}
	}
}
MOTION
Frames: 7
Frame Time: 0.050000
0.134766 0.981716 -0.082565 3.947293 -0.997401 -9.773561 -3.228685 3.188597 17.604836 -1.731699 1.092319 -10.134105 -4.540153 -1.580165 8.833737 0.000000 0.000000 0.000000 0.087785 -0.549994 4.619655 -2.805003 1.080369 14.653651 -0.848503 -0.866875 -1.285983 0.000000 0.000000 0.000000 -0.599518 -1.052793 16.270381 -5.815555 -1.098852 -16.024755 6.017435 -3.257497 22.875419 0.428150 1.154587 -8.415354 0.000000 0.000000 0.000000 -20.002613 -5.370889 2.528430 -51.204299 -4.548704 -8.486835 -10.545602 -27.415425 5.482371 2.138244 4.862998 17.009188 -35.593035 18.613203 0.379943 -32.797477 3.848877 -2.696211 0.000000 0.000000 0.000000 -52.552140 -5.032087 -11.440637 -73.420480 -14.719475 -20.430375 0.000000 0.000000 0.000000 17.226565 -18.865818 -15.606381 -90.285509 -5.519038 -4.884245 0.000000 0.000000 0.000000 -54.826213 -10.687692 -7.748402 -99.111139 -27.554610 -11.823254 0.000000 0.000000 0.000000 11.627855 23.035380 21.151483 -3.931405 -4.005048 0.072278 0.000000 0.000000 0.000000 16.216183 4.208600 0.415502 51.087453 10.689213 -3.421688 11.305617 44.914786 3.315623 0.664474 -0.413765 11.036468 13.306821 0.162028 0.149840 23.130984 -1.203520 -5.153860 0.000000 0.000000 0.000000 31.793316 7.351469 -8.102185 86.064647 26.138649 -26.078236 0.000000 0.000000 0.000000 -19.757935 17.808594 -16.017907 70.088328 7.229242 -8.955325 0.000000 0.000000 0.000000 22.030563 12.953570 -7.686096 79.610402 19.485331 -15.432711 0.000000 0.000000 0.000000 -11.548070 -16.283470 12.760697 1.370706 7.824979 -1.963787 0.000000 0.000000 0.000000 
0.134766 0.982038 -0.082565 3.734569 -0.301375 -10.670241 -3.066011 3.237949 18.187281 -1.602081 1.044323 -9.717605 -4.729352 -1.753360 8.934845 0.000000 0.000000 0.000000 -0.118933 -0.691158 5.931460 -2.248778 0.946548 14.271134 -0.819989 -0.987492 -1.036757 0.000000 0.000000 0.000000 -0.564198 -1.084914 16.824414 -5.861605 -1.031228 -15.982464 6.433089 -2.498607 22.688887 0.749590 0.976410 -7.383662 0.000000 0.000000 0.000000 -19.680367 -5.696380 2.466095 -51.776438 -3.176304 -8.815930 -10.963535 -27.969052 5.674124 0.788664 5.332124 16.356220 -32.122261 18.917507 1.240294 -33.277537 3.695171 -3.199380 0.000000 0.000000 0.000000 -49.372769 -5.679064 -10.947471 -70.086602 -11.142703 -18.437083 0.000000 0.000000 0.000000 21.897476 -19.268129 -16.243290 -67.993683 -2.002634 -5.769972 0.000000 0.000000 0.000000 -63.020375 -6.305107 -8.250598 -94.176103 -21.259369 -9.421982 0.000000 0.000000 0.000000 12.165587 21.204154 18.945571 -4.770979 0.760962 1.642258 0.000000 0.000000 0.000000 15.476976 4.312453 0.796451 50.839343 12.709515 -2.636191 11.373433 47.143760 3.662934 0.217507 -0.802374 7.361835 15.361418 0.521871 0.206702 14.872928 -0.899771 -2.946541 0.000000 0.000000 0.000000 25.301906 6.737723 -6.711800 60.530498 9.318052 -18.852091 0.000000 0.000000 0.000000 -18.164836 19.151476 -20.579706 60.498693 3.064651 -4.179373 0.000000 0.000000 0.000000 25.210343 11.630375 -6.920850 67.601365 17.222397 -16.829522 0.000000 0.000000 0.000000 -9.697464 -18.645704 15.243622 1.622840 8.112349 -2.054082 0.000000 0.000000 0.000000 
0.134766 0.983006 -0.085205 3.589881 -0.080638 -11.490549 -3.275727 3.233516 18.057648 -1.110957 0.893486 -8.182043 -4.504462 -1.641568 8.547346 0.000000 0.000000 0.000000 -0.646467 -0.688316 6.256851 -1.512134 0.856653 15.086620 -0.280831 -0.147674 -0.634756 0.000000 0.000000 0.000000 -0.411624 -1.184658 18.151906 -6.135360 -1.010639 -16.370143 6.958602 -1.449714 22.145548 1.020803 0.824821 -6.505456 0.000000 0.000000 0.000000 -19.270433 -5.781179 2.239778 -52.219998 -2.402246 -9.031241 -11.665746 -28.000173 5.814189 0.729858 5.030562 15.249522 -31.094205 18.944139 1.548109 -29.972041 2.392713 -4.226221 0.000000 0.000000 0.000000 -48.324583 -2.189346 -10.222341 -66.654554 -9.269204 -17.377856 0.000000 0.000000 0.000000 20.622343 -18.800792 -15.624505 -63.539702 0.356906 -2.969332 0.000000 0.000000 0.000000 -68.209234 -3.733942 -8.643877 -86.451533 -14.690437 -6.443877 0.000000 0.000000 0.000000 10.701373 20.663891 18.400323 -3.414533 1.827156 1.545196 0.000000 0.000000 0.000000 14.495753 4.577486 1.273973 50.759515 14.226333 -1.996427 11.236316 49.504198 3.960061 0.229538 -0.270834 6.336179 14.832015 -1.481537 0.743248 10.173498 0.150736 -3.848614 0.000000 0.000000 0.000000 22.691818 5.082970 -5.740838 46.611461 5.403370 -15.732972 0.000000 0.000000 0.000000 -15.109680 19.390065 -21.742341 59.942330 0.655209 -0.902937 0.000000 0.000000 0.000000 26.324921 11.402452 -6.733080 57.300469 17.868335 -21.369822 0.000000 0.000000 0.000000 -9.921838 -18.742149 15.056772 3.551309 9.578159 -1.832011 0.000000 0.000000 0.000000 
0.133823 0.983650 -0.085205 3.395873 -0.133933 -11.565818 -3.248532 3.116931 17.440711 -0.884527 0.799956 -7.263684 -4.146911 -0.694571 8.961117 0.000000 0.000000 0.000000 -1.075255 -0.578915 5.576124 -0.686408 0.769967 16.495658 0.356030 1.076252 -0.506251 0.000000 0.000000 0.000000 -0.215348 -1.151560 17.336235 -6.353603 -0.760963 -15.720550 7.185733 -0.471884 22.636487 1.487499 0.852385 -6.970070 0.000000 0.000000 0.000000 -18.982297 -6.039469 2.228303 -52.338211 -1.890337 -9.205329 -12.197392 -28.969181 6.149870 0.547882 5.328415 15.511798 -29.026288 16.468556 1.698776 -26.498673 3.758115 -1.699543 0.000000 0.000000 0.000000 -47.104584 -1.314463 -9.976496 -65.110777 -9.590351 -18.172473 0.000000 0.000000 0.000000 20.091968 -19.229703 -16.072819 -64.771526 0.238986 -3.127003 0.000000 0.000000 0.000000 -64.612547 -11.396989 -7.830453 -83.535339 -16.812001 -8.703496 0.000000 0.000000 0.000000 11.930964 21.377217 19.190743 -1.593319 -1.327044 0.087325 0.000000 0.000000 0.000000 14.307486 4.583663 1.457710 50.134370 16.209373 -1.280761 10.671904 51.988013 4.089601 0.329441 0.715090 4.929336 15.276255 -4.169660 1.434232 9.303178 0.350947 -3.987070 0.000000 0.000000 0.000000 21.671315 4.131338 -5.169064 44.221741 5.841638 -16.203403 0.000000 0.000000 0.000000 -11.969166 19.254494 -22.260433 58.474064 -0.108039 0.444785 0.000000 0.000000 0.000000 28.258015 11.055590 -6.430041 51.239049 14.195709 -18.495032 0.000000 0.000000 0.000000 -9.067351 -18.860252 15.161843 2.826069 9.277679 -2.039951 0.000000 0.000000 0.000000 
0.132881 0.983328 -0.087845 3.212022 1.053736 -11.981118 -3.183394 2.980376 16.987763 -0.461803 0.650878 -5.958140 -4.395919 -1.797132 7.958860 0.000000 0.000000 0.000000 -1.609694 -0.443310 4.562042 0.293830 0.634806 19.168900 0.603373 1.629048 -0.575616 0.000000 0.000000 0.000000 -0.052113 -1.212892 18.052054 -6.567061 -0.302325 -14.547115 7.260483 -1.328641 20.415684 1.663939 0.583213 -5.392495 0.000000 0.000000 0.000000 -18.686364 -5.757597 2.020470 -52.562239 -0.422651 -9.367628 -13.331334 -30.323525 6.761329 1.526273 4.565738 15.280237 -29.054760 17.714655 1.770565 -20.248987 2.126008 -2.507991 0.000000 0.000000 0.000000 -45.299576 -0.265239 -9.471740 -63.119651 -10.225079 -19.338980 0.000000 0.000000 0.000000 17.996907 -19.357130 -16.636589 -63.038673 -0.058001 -2.750486 0.000000 0.000000 0.000000 -66.396691 -1.611545 -8.599422 -86.546324 -10.582732 -3.389346 0.000000 0.000000 0.000000 11.182398 21.240332 18.954805 -1.073879 0.045686 0.334582 0.000000 0.000000 0.000000 13.382162 5.404158 2.030374 50.184126 16.177071 -1.180051 10.424380 56.341277 4.387101 0.427074 0.631623 4.111538 15.202818 -5.770908 1.826829 6.861316 0.592378 -3.931376 0.000000 0.000000 0.000000 20.653718 2.360930 -4.365659 42.284824 5.939691 -16.367479 0.000000 0.000000 0.000000 -13.502781 17.851959 -20.240746 54.315987 -2.062054 2.786020 0.000000 0.000000 0.000000 28.022164 9.449448 -5.811909 43.133532 11.902388 -18.069139 0.000000 0.000000 0.000000 -10.092054 -19.133717 15.066657 4.015689 10.237365 -1.916935 0.000000 0.000000 0.000000 
0.131468 0.982683 -0.087845 3.176957 2.158199 -12.390521 -2.885694 2.995009 17.602092 -0.634093 0.678402 -6.254299 -4.965993 -2.686126 7.967585 0.000000 0.000000 0.000000 -2.328191 -0.343551 3.907959 1.025913 0.474077 21.190455 0.700809 2.094160 -0.964181 0.000000 0.000000 0.000000 -0.278771 -1.241032 18.764468 -6.153119 -0.873644 -16.348244 7.250389 -0.520579 21.918973 2.037742 0.561859 -5.474081 0.000000 0.000000 0.000000 -18.687343 -6.300491 2.062435 -52.293004 -0.734988 -9.434469 -13.237654 -30.698411 6.780716 1.034922 5.372084 15.259768 -30.979765 17.669894 1.384602 -19.631937 2.081328 -2.379249 0.000000 0.000000 0.000000 -46.930082 0.244574 -9.791686 -58.082180 -4.855814 -14.140062 0.000000 0.000000 0.000000 16.780049 -20.017024 -17.617845 -58.456592 0.411532 -2.002068 0.000000 0.000000 0.000000 -76.970132 -12.446274 -6.895265 -67.786456 -13.273964 -8.767755 0.000000 0.000000 0.000000 11.501682 23.779108 22.075406 1.109307 -0.735403 -0.600466 0.000000 0.000000 0.000000 13.454152 5.161324 2.123749 49.821439 16.605178 -0.939736 9.100867 60.539101 4.407065 1.077531 0.753475 2.655433 14.026411 -6.075721 1.956838 5.336537 0.889144 -4.271044 0.000000 0.000000 0.000000 19.750980 1.398886 -3.802004 39.561390 7.114539 -17.970673 0.000000 0.000000 0.000000 -13.335240 16.483527 -18.766681 54.197883 -3.296477 4.449796 0.000000 0.000000 0.000000 28.400487 9.243776 -5.612060 39.622776 11.726605 -18.378339 0.000000 0.000000 0.000000 -9.309644 -19.109035 14.965611 3.245737 9.987431 -2.175443 0.000000 0.000000 0.000000 
0.129112 0.981716 -0.087845 3.376941 2.153286 -12.882674 -2.879087 3.096519 18.204565 -0.723051 0.689120 -6.338532 -4.929253 -2.641390 7.944794 0.000000 0.000000 0.000000 -2.906838 -0.263065 3.379838 0.652718 0.612997 22.890783 0.162976 1.417117 -1.622822 0.000000 0.000000 0.000000 -0.445919 -1.209847 18.617907 -6.454129 -0.645749 -15.924440 7.269317 -0.614721 22.341975 2.280455 0.473280 -5.164227 0.000000 0.000000 0.000000 -18.805922 -6.263875 2.061604 -51.930611 -0.988533 -9.354578 -12.935760 -31.239200 6.836104 1.286501 4.702907 14.825383 -28.945773 14.931674 1.520199 -20.335057 3.396005 -0.456795 0.000000 0.000000 0.000000 -47.521846 0.122205 -9.805914 -57.441177 -6.072680 -15.542675 0.000000 0.000000 0.000000 12.278250 -21.353843 -20.676952 -53.976663 5.147573 6.430958 0.000000 0.000000 0.000000 -82.044414 -17.560468 -4.960841 -59.807518 -11.070858 -8.638528 0.000000 0.000000 0.000000 13.465392 25.704044 24.134397 -1.151924 -2.773273 -0.504821 0.000000 0.000000 0.000000 13.301650 5.684108 2.472396 49.717240 17.502248 -0.691144 7.555091 65.062369 3.980749 1.273626 1.068783 1.827538 13.786660 -6.290327 2.021829 2.941251 0.732343 -3.213038 0.000000 0.000000 0.000000 18.456644 0.588896 -3.273743 37.512296 6.220538 -16.595622 0.000000 0.000000 0.000000 -14.219426 14.318149 -15.262777 52.115341 -1.553479 2.301666 0.000000 0.000000 0.000000 27.580351 7.246355 -4.818447 35.065757 11.119130 -19.005017 0.000000 0.000000 0.000000 -9.941221 -19.246662 14.811579 4.386193 11.653607 -2.277108 0.000000 0.000000 0.000000 
